# xmcd CD database file
#
# Track frame offsets:
#	150
#	13017
#	40460
#	65132
#	83585
#	109902
#	125315
#	146567
#	183097
#	215717
#	229337
#	276007
#	292552
#
# Disc length: 4095 seconds
#
# Revision: 0
# Processed by: cddbd v1.5.2PL0 Copyright (c) Steve Scherf et al.
# Submitted via: CDex 1.70beta2
#
DISCID=ba0ffd0d
DTITLE=STRADA - 山道
DYEAR=1995
DGENRE=Jazz
TTITLE0=記忘
TTITLE1=身それた花
TTITLE2=水辺のうた
TTITLE3=忘れ酒
TTITLE4=二十世紀旗手
TTITLE5=ウィスパリング
TTITLE6=祖国を追われた者の歌
TTITLE7=山道
TTITLE8=伝説列車
TTITLE9=しあわせなユダヤ人
TTITLE10=スウェーデンとルーマニア　二つの民謡
TTITLE11=モナミ（わが友）
TTITLE12=シーベックシーモア
EXTD=YEAR: 1995
EXTT0=
EXTT1=
EXTT2=
EXTT3=
EXTT4=
EXTT5=
EXTT6=
EXTT7=
EXTT8=
EXTT9=
EXTT10=
EXTT11=
EXTT12=
PLAYORDER=
